#define max_width 10
#define max_height 10
static unsigned char max_bits[] = {
   0x00, 0x00, 0x00, 0x00, 0xcc, 0x00, 0xcc, 0x00, 0x00, 0x00, 0x00, 0x00,
   0xc0, 0x00, 0xc0, 0x00, 0x00, 0x00, 0x00, 0x00 };
