#define bullet_width 10
#define bullet_height 10
static unsigned char bullet_bits[] = {
   0x00, 0x00, 0x00, 0x00, 0x00, 0x00, 0x04, 0x00, 0x0c, 0x00, 0x1c, 0x00,
   0x0c, 0x00, 0x04, 0x00, 0x00, 0x00, 0x00, 0x00 };
